<?xml version="1.0" encoding="utf-8"?>
<!-- Generator: Adobe Illustrator 26.0.0, SVG Export Plug-In . SVG Version: 6.00 Build 0)  -->
<svg version="1.1" id="Layer_1" xmlns="http://www.w3.org/2000/svg" xmlns:xlink="http://www.w3.org/1999/xlink" x="0px" y="0px"
	 viewBox="0 0 44 44" style="enable-background:new 0 0 44 44;" xml:space="preserve">
<style type="text/css">
	.st0{fill:#55C9EC;}
	.st1{fill-rule:evenodd;clip-rule:evenodd;fill:#FFFFFF;}
</style>
<circle class="st0" cx="22" cy="22" r="22"/>
<path class="st1" d="M14,9.4c0.1,0.1,0.4,0.2,0.5,0.3c0.8,0.5,3.1,3.4,3.8,4.9c0.4,0.8,0.6,1.4,0.4,1.9c-0.1,0.5-0.4,0.7-1.4,1.6
	c-0.4,0.3-0.8,0.7-0.8,0.8c-0.2,0.2-0.3,0.7-0.3,1c0,0.7,0.5,2,1.1,3c0.5,0.8,1.3,1.8,2.1,2.5c1,0.9,1.8,1.5,2.8,2
	c1.3,0.6,2,0.8,2.6,0.5c0.1-0.1,0.3-0.1,0.3-0.2c0,0,0.4-0.4,0.7-0.9c0.7-0.9,0.8-1,1.3-1.2c0.6-0.2,1.2-0.1,1.8,0.2
	c0.5,0.2,1.5,0.9,2.2,1.3c0.9,0.6,2.7,2.1,3,2.4c0.4,0.5,0.5,1.2,0.2,2c-0.3,0.8-1.5,2.3-2.4,3c-0.8,0.6-1.3,0.8-2.1,0.8
	c-0.6,0-0.8,0-1.6-0.3c-6-2.5-10.8-6.1-14.6-11.2c-2-2.6-3.5-5.4-4.5-8.2c-0.6-1.7-0.6-2.4-0.1-3.2c0.2-0.4,1.1-1.2,1.8-1.7
	c1.1-0.8,1.6-1.1,2-1.2C13.2,9.2,13.7,9.2,14,9.4z"/>
</svg>
