<?xml version="1.0" encoding="utf-8"?>
<!-- Generator: Adobe Illustrator 26.0.0, SVG Export Plug-In . SVG Version: 6.00 Build 0)  -->
<svg version="1.1" id="Layer_1" xmlns="http://www.w3.org/2000/svg" xmlns:xlink="http://www.w3.org/1999/xlink" x="0px" y="0px"
	 viewBox="0 0 44 44" style="enable-background:new 0 0 44 44;" xml:space="preserve">
<style type="text/css">
	.st0{fill:#57C9EB;}
	.st1{clip-path:url(#SVGID_00000173142763309465125030000005195381410170684565_);}
	.st2{fill-rule:evenodd;clip-rule:evenodd;fill:#FFFFFF;}
	.st3{fill:#FFFFFF;}
	.st4{display:none;fill:#0068FF;}
</style>
<circle class="st0" cx="22" cy="22" r="22"/>
<g>
	<defs>
		<rect id="SVGID_1_" x="8.8" y="9.9" width="26.4" height="24.2"/>
	</defs>
	<clipPath id="SVGID_00000005229682240495285620000002979325555762665890_">
		<use xlink:href="#SVGID_1_"  style="overflow:visible;"/>
	</clipPath>
	<g style="clip-path:url(#SVGID_00000005229682240495285620000002979325555762665890_);">
		<path class="st2" d="M15.3,34.1c0.5,0,1,0,1.5,0c0,0,0,0,0,0c0,0,0,0,0,0c0.1,0,0.2,0,0.3,0h8.3c0.7,0,1.4,0,2.1,0
			c1.4,0,2.8,0,4.1,0h0c1.9,0,3.4-1.5,3.4-3.4v-3.2c0,0,0,0,0-0.1c0-0.1,0-0.2,0-0.2c-0.1,0-0.3,0-0.3,0.1c-0.4,0.3-0.9,0.6-1.3,0.9
			c-0.9,0.6-1.7,1.2-2.7,1.6c-3.7,1.2-7,1.3-10.5,0.5c-0.2-0.1-0.3-0.1-0.4,0c-0.1,0-0.2,0-0.4,0c0,0-0.1,0-0.1,0
			c-0.3,0-0.8,0-1.4,0.4c-1.4,0.4-3.3,0.5-4.3,0.3c0,0,0,0,0,0c0,0,0,0,0,0c0,0,0,0,0,0c-0.1,0-0.1-0.1,0-0.2c0,0,0.1,0,0.1-0.1
			c0.1,0,0.1-0.1,0.2-0.1c0.8-0.5,1.5-1,1.9-1.7c0.6-0.7,0.3-1-0.2-1.6l0,0c-2.7-2.7-3.5-5.5-3.2-9.4c0.3-2.1,1.3-3.9,2.8-5.5
			c0.9-1,1.9-1.7,3-2.4c0,0,0,0,0.1,0c0.1,0,0.1,0,0.1-0.1c0-0.1-0.1-0.1-0.1-0.1c-0.6,0-1.3,0-1.9,0c-1.3,0-2.5,0-3.8,0
			c-1.8,0-3.5,1.3-3.5,3.5c0,3.9,0,7.7,0,11.6c0,1.9,0,3.9,0,5.8c0,1.8,1.4,3.3,3.3,3.4C13.1,34.1,14.2,34.1,15.3,34.1z M13.6,31.1
			C13.6,31.1,13.6,31.2,13.6,31.1c0.1,0.1,0.2,0.2,0.3,0.3C13.8,31.3,13.7,31.2,13.6,31.1C13.6,31.1,13.6,31.1,13.6,31.1z
			 M16.5,33.8C16.5,33.8,16.5,33.8,16.5,33.8c-0.1-0.1-0.1-0.1-0.1-0.1c0,0,0,0,0,0C16.5,33.8,16.5,33.8,16.5,33.8z"/>
		<path class="st3" d="M17.7,21.7c0.9,0,1.7,0,2.5,0c0.5,0,0.7,0.2,0.7,0.5c0.1,0.4-0.2,0.7-0.7,0.7c-0.9,0-1.9,0-2.8,0
			c-0.3,0-0.5,0-0.8,0c-0.3,0-0.7-0.1-0.8-0.4c-0.2-0.3,0-0.6,0.2-0.9c0.9-1.1,1.8-2.2,2.7-3.3c0.1-0.1,0.1-0.1,0.2-0.2
			c-0.1-0.1-0.1,0-0.2-0.1c-0.6,0-1.2,0-1.9,0c-0.1,0-0.3,0-0.4,0c-0.3-0.1-0.5-0.4-0.5-0.7c0.1-0.2,0.2-0.4,0.4-0.4
			c0.1,0,0.3,0,0.4,0c1,0,2,0,3.1,0c0.2,0,0.4,0,0.5,0.1c0.4,0.1,0.6,0.5,0.4,0.8c-0.1,0.3-0.4,0.6-0.6,0.9
			c-0.8,0.9-1.5,1.8-2.3,2.8C17.8,21.5,17.8,21.6,17.7,21.7z"/>
		<path class="st3" d="M24.3,18.8c0.1-0.2,0.3-0.3,0.5-0.4c0.5-0.1,0.9,0.2,0.9,0.6c0,1.1,0,2.2,0,3.3c0,0.3-0.2,0.5-0.5,0.6
			c-0.3,0.1-0.6,0-0.8-0.2c-0.1-0.1-0.1-0.1-0.3,0c-0.5,0.4-1.1,0.5-1.7,0.3c-1-0.3-1.4-1.1-1.6-2c-0.1-1,0.2-1.9,1.2-2.4
			C22.8,18.1,23.6,18.2,24.3,18.8z M22.3,20.8c0,0.2,0.1,0.5,0.2,0.7c0.3,0.4,0.9,0.5,1.3,0.2c0.1,0,0.1-0.1,0.2-0.2
			c0.3-0.4,0.3-1.1,0-1.5c-0.2-0.2-0.4-0.3-0.7-0.3C22.7,19.5,22.3,20,22.3,20.8z M28.3,20.8c0-1.4,0.9-2.5,2.3-2.5
			c1.5,0,2.5,0.9,2.6,2.3c0,1.4-0.8,2.4-2.2,2.5C29.5,23.3,28.3,22.2,28.3,20.8z M29.7,20.7c0,0.3,0.1,0.5,0.2,0.8
			c0.3,0.4,0.9,0.5,1.3,0.2c0.1,0,0.1-0.1,0.2-0.2c0.3-0.4,0.3-1.1,0-1.6c-0.2-0.2-0.4-0.3-0.7-0.3C30.2,19.5,29.7,20,29.7,20.7z
			 M27.8,19.7c0,0.9,0,1.7,0,2.6c0,0.4-0.3,0.7-0.7,0.7c-0.1,0-0.1,0-0.2,0c-0.3-0.1-0.5-0.4-0.5-0.7v-4.4c0-0.3,0-0.5,0-0.8
			c0-0.4,0.3-0.7,0.7-0.7c0.4,0,0.7,0.3,0.7,0.7C27.8,18,27.8,18.8,27.8,19.7z"/>
		<path class="st4" d="M22.3,20.8c0-0.8,0.4-1.3,1.1-1.2c0.3,0,0.5,0.1,0.7,0.4c0.3,0.4,0.3,1.1,0,1.5c-0.3,0.4-0.9,0.5-1.3,0.2
			c-0.1,0-0.1-0.1-0.2-0.2C22.4,21.3,22.3,21,22.3,20.8z M29.7,20.7c0-0.7,0.4-1.1,1.1-1.1c0.3,0,0.5,0.1,0.7,0.3
			c0.3,0.4,0.3,1.1,0,1.6c-0.3,0.4-0.9,0.5-1.3,0.1c-0.1,0-0.1-0.1-0.2-0.2C29.8,21.2,29.7,21,29.7,20.7z"/>
	</g>
</g>
</svg>
